<?xml version="1.0" encoding="UTF-8"?>
<svg id="computer-settings" xmlns="http://www.w3.org/2000/svg" version="1.1" viewBox="0 0 100 100">
  <defs>
    <style>
      .cls-1 {
        fill: #000;
      }

      .cls-1, .cls-2 {
        stroke-width: 0px;
      }

      .cls-2 {
        fill: #1b45e0;
      }
    </style>
  </defs>
  <path class="cls-2" d="M88,7H12c-3.3,0-6,2.7-6,6v64c0,3.3,2.7,6,6,6h30l-.7,1.7c-1,2.6-3.6,4.3-6.4,4.3h-4c-1.1,0-2,.9-2,2s.9,2,2,2h38c1.1,0,2-.9,2-2s-.9-2-2-2h-4c-2.8,0-5.3-1.7-6.4-4.3l-.7-1.7h30c3.3,0,6-2.7,6-6V13c0-3.3-2.7-6-6-6ZM43.4,89c.7-.8,1.2-1.8,1.7-2.8l1.3-3.2h7.3l1.3,3.2c.4,1,1,2,1.7,2.8h-13.1ZM90,77c0,1.1-.9,2-2,2H12c-1.1,0-2-.9-2-2v-4h80v4ZM90,69H10V13c0-1.1.9-2,2-2h76c1.1,0,2,.9,2,2v56Z"/>
  <path class="cls-1" d="M70.6,33.8c.5-1.8.2-3.7-.7-5.3-1.9-3.3-6.2-4.5-9.6-2.6l-.5.3c-.9-.7-1.9-1.2-2.9-1.7v-.5c0-3.9-3.1-7-7-7s-7,3.1-7,7v.5c-1,.5-2,1-2.9,1.7l-.5-.3c-1.6-.9-3.5-1.2-5.3-.7-1.8.5-3.3,1.6-4.2,3.3-.9,1.6-1.2,3.5-.7,5.3.5,1.8,1.6,3.3,3.3,4.2l.4.3c0,.6,0,1.1,0,1.7s0,1.1,0,1.7l-.5.3c-1.6.9-2.8,2.5-3.3,4.2-.5,1.8-.2,3.7.7,5.3.9,1.6,2.4,2.8,4.2,3.3s3.7.2,5.3-.7l.5-.3c.9.7,1.9,1.2,2.9,1.7v.5c0,3.9,3.1,7,7,7s7-3.1,7-7v-.5c1-.5,2-1,2.9-1.7l.5.3c1.6.9,3.5,1.2,5.3.7,1.8-.5,3.3-1.6,4.3-3.3.9-1.6,1.2-3.5.7-5.3-.5-1.8-1.6-3.3-3.3-4.2l-.4-.3c.1-1.1.1-2.2,0-3.4l.4-.3c1.6-.9,2.8-2.5,3.3-4.2ZM62.8,37.6c.2.8.2,1.6.2,2.4s0,1.5-.2,2.4c-.2.8.2,1.7,1,2.1l1.6.9c.7.4,1.2,1,1.4,1.8.2.8,0,1.6-.3,2.3-.8,1.4-2.7,1.9-4.1,1.1l-1.6-.9c-.7-.4-1.7-.3-2.3.2-1.2,1-2.6,1.8-4.1,2.4-.8.3-1.3,1-1.3,1.9v1.9c0,1.7-1.3,3-3,3s-3-1.3-3-3v-1.9c0-.8-.5-1.6-1.3-1.9-1.5-.5-2.9-1.3-4.1-2.4-.4-.3-.8-.5-1.3-.5s-.7,0-1,.3l-1.6.9c-.7.4-1.5.5-2.3.3-.8-.2-1.4-.7-1.8-1.4-.4-.7-.5-1.5-.3-2.3.2-.8.7-1.4,1.4-1.8l1.6-.9c.7-.4,1.1-1.3,1-2.1-.2-.8-.2-1.6-.2-2.4s0-1.5.2-2.4c.2-.8-.2-1.7-1-2.1l-1.6-.9c-.7-.4-1.2-1-1.4-1.8-.2-.8,0-1.6.3-2.3.4-.7,1-1.2,1.8-1.4.8-.2,1.6-.1,2.3.3l1.6.9c.7.4,1.7.3,2.3-.2,1.2-1,2.6-1.8,4.1-2.4.8-.3,1.3-1,1.3-1.9v-1.9c0-1.7,1.3-3,3-3s3,1.3,3,3v1.9c0,.9.5,1.6,1.3,1.9,1.5.5,2.9,1.3,4.1,2.4.7.5,1.6.6,2.3.2l1.6-.9c.7-.4,1.5-.5,2.3-.3.8.2,1.4.7,1.8,1.4.4.7.5,1.5.3,2.3-.2.8-.7,1.4-1.4,1.8l-1.6.9c-.7.4-1.1,1.3-1,2.1Z"/>
  <path class="cls-1" d="M50,33c-3.9,0-7,3.1-7,7s3.1,7,7,7,7-3.1,7-7-3.1-7-7-7ZM50,43c-1.7,0-3-1.3-3-3s1.3-3,3-3,3,1.3,3,3-1.3,3-3,3Z"/>
</svg>