<?xml version="1.0" encoding="UTF-8"?>
<svg id="mobile-app" xmlns="http://www.w3.org/2000/svg" version="1.1" viewBox="0 0 24 24">
  <defs>
    <style>
      .cls-1 {
        fill: #0f0f0f;
      }

      .cls-1, .cls-2 {
        stroke-width: 0px;
      }

      .cls-2 {
        fill: #1b45e0;
      }
    </style>
  </defs>
  <g>
    <path class="cls-2" d="M17.5,0H6.5c-1.3,0-2.4,1.1-2.4,2.4v19c0,1.3,1.1,2.4,2.4,2.4h11.1c1.3,0,2.4-1.1,2.4-2.4V2.4c0-1.3-1.1-2.4-2.4-2.4ZM18.3,21.4c0,.4-.4.8-.8.8H6.5c-.4,0-.8-.4-.8-.8V2.4c0-.4.4-.8.8-.8h11.1c.4,0,.8.4.8.8v19Z"/>
    <path class="cls-2" d="M13.6,2.4h-3.2c-.4,0-.8.4-.8.8s.4.8.8.8h3.2c.4,0,.8-.4.8-.8s-.4-.8-.8-.8Z"/>
  </g>
  <g>
    <path class="cls-1" d="M14,13.7c0-1.9-.6-3.6-1.9-5,0,0,0,0-.2,0,0,0,0,0-.1,0h0c-1.2,1.4-1.9,3.2-1.9,5-1.1.7-1.5,2.1-1,3.2.3-.6.7-1,1.2-1.3,0,.2.1.5.2.7,0,0,.1.1.2.1h3c0,0,.1,0,.1-.1,0-.2.1-.4.2-.7.5.3,1,.8,1.2,1.3.5-1.2,0-2.6-1-3.2ZM14.2,15.1l-.8-.5v.9c-.1,0-.2.2-.2.2h-2.3c0-.1,0-.2,0-.3l-.2-.8-.8.4c-.1,0-.2.2-.4.2.1-.4.4-.8.8-1.1l.3-.2v-.3c0-1.5.5-3,1.4-4.2.9,1.2,1.4,2.7,1.4,4.2v.4l.3.2c.4.2.7.6.8,1.1-.1,0-.3-.2-.4-.3Z"/>
    <path class="cls-1" d="M12,11.9c-.5,0-.8.3-.9.8,0,.5.3.8.8.9,0,0,0,0,.1,0h0c.4,0,.8-.4.8-.8,0,0,0,0,0,0,0-.5-.4-.8-.8-.8,0,0,0,0,0,0ZM13.2,17s0,0,0,0c-.2,0-.4.2-.4.4,0,0,0,0,0,0v1.3c0,.2.2.4.4.4s.4-.2.4-.4h0v-1.2c0-.2-.2-.4-.4-.4,0,0,0,0,0,0ZM10.9,17h0c-.2,0-.4.2-.4.4v1.3c0,.2.1.4.4.4.2,0,.4-.1.4-.4,0,0,0,0,0,0v-1.2c0-.2-.2-.4-.4-.4,0,0,0,0,0,0ZM12,17h0c-.2,0-.4.2-.4.4,0,0,0,0,0,0v1.7c0,.2.1.4.4.4s.4-.1.4-.4c0,0,0,0,0,0v-1.7c0-.2-.2-.4-.4-.4,0,0,0,0,0,0Z"/>
  </g>
</svg>