<?xml version="1.0" encoding="UTF-8"?>
<svg id="smart-tv" xmlns="http://www.w3.org/2000/svg" version="1.1" viewBox="0 0 32 32">
  <defs>
    <style>
      .cls-1 {
        fill: #000;
      }

      .cls-1, .cls-2 {
        stroke-width: 0px;
      }

      .cls-2 {
        fill: #1b45e0;
      }
    </style>
  </defs>
  <path class="cls-2" d="M28,5H4c-1.7,0-3,1.3-3,3v13c0,1.7,1.3,3,3,3h2.6l-1.3,1.3c-.4.4-.4,1,0,1.4,0,0,0,0,0,0,.2.2.4.3.7.3.3,0,.5-.1.7-.3l2.7-2.7h13.1l2.7,2.7c.4.4,1,.4,1.4,0,0,0,0,0,0,0,.4-.4.4-1,0-1.4,0,0,0,0,0,0l-1.3-1.3h2.6c1.7,0,3-1.3,3-3v-13c0-1.7-1.3-3-3-3ZM29,21c0,.6-.4,1-1,1H4c-.6,0-1-.4-1-1v-13c0-.6.4-1,1-1h24c.6,0,1,.4,1,1v13Z"/>
  <path class="cls-1" d="M14.4,14.3h.6l-.3-.8-.3.8ZM17.5,14c-.2,0-.4.2-.4.4,0,.2.2.4.4.4s.4-.2.4-.4c0,0,0,0,0,0,0-.2-.2-.4-.4-.4ZM19.3,11h-6.6c-.4,0-.8.3-.8.7,0,0,0,0,0,0v4.5c0,.4.3.8.8.8h6.6c.4,0,.8-.3.8-.7,0,0,0,0,0,0v-4.5c0-.4-.3-.8-.8-.8,0,0,0,0,0,0ZM15.9,15.5h-.3c-.1,0-.2,0-.2-.2v-.3h-1.2v.3c-.2.1-.2.2-.4.2h-.3c-.1,0-.3-.1-.3-.3,0,0,0,0,0,0l.8-2.4c0-.2.2-.3.4-.3h.4c.2,0,.3.1.4.3l.8,2.4c0,.1,0,.3-.2.3,0,0,0,0,0,0ZM18.6,15.3c0,.1-.1.3-.3.3h-.2c0,0-.1,0-.2,0-.1,0-.3,0-.4,0-.6,0-1.2-.4-1.2-1.1,0-.6.4-1.2,1.1-1.2,0,0,0,0,.1,0,.1,0,.3,0,.4,0v-.6c0-.1.1-.3.3-.3h.2c.1,0,.3.1.3.3h0v2.5Z"/>
</svg>